<svg viewBox="0 0 132 51" fill="none" xmlns="http://www.w3.org/2000/svg">
<path d="M120.218 29.8249C119.77 29.6646 118.736 29.6136 116.814 29.6573C116.704 29.6355 116.587 29.6573 116.44 29.6719C116.015 29.7302 114.885 29.8759 114.445 29.4169C114.247 29.2128 114.188 28.8631 114.276 28.3967C114.489 27.209 116.029 25.3145 117.049 24.0612C117.863 23.0556 118.23 22.5965 118.296 22.2686C118.333 22.0792 118.289 21.8897 118.164 21.7513C117.885 21.4234 117.357 21.4525 116.477 21.489C115.619 21.5254 114.548 21.5764 113.888 21.2266C113.543 21.0445 113.572 20.5781 113.675 19.8276C113.741 19.3321 113.807 18.8585 113.646 18.4723C113.367 17.7873 112.083 17.9185 111.702 17.9768C110.844 18.1079 110.206 19.2811 109.149 21.2339C107.756 23.8134 105.841 27.3402 102.489 30.131L102.445 30.1455C102.394 30.1674 102.343 30.182 102.291 30.2038C101.55 30.4297 101.015 30.4807 100.553 30.3641C100.326 30.3058 100.142 30.2184 100.238 29.7302C100.296 29.4023 100.377 29.0598 100.524 28.7975C100.832 28.2437 101.25 27.5296 101.734 26.8884C102.951 25.278 104.176 23.675 105.409 22.0792L108.115 18.5233L107.264 18.3557C107.125 18.3265 107 18.2974 106.868 18.2901C105.284 18.21 103.634 18.2683 101.961 18.4577C101.316 18.5306 100.92 18.8658 100.729 19.5143L100.619 19.8932L101.176 20.1045C101.294 20.1482 101.404 20.1846 101.514 20.2357C101.793 20.3595 101.961 20.4907 101.705 21.0663C101.624 21.2485 101.521 21.4234 101.404 21.5764L100.78 22.4071C99.9221 23.5511 99.064 24.6951 98.1838 25.8172L97.6924 26.4585C96.7755 27.6608 95.6313 29.1473 94.5384 29.9561C93.9369 30.4006 93.4455 30.6483 92.9688 30.7576C92.5653 30.8451 92.2646 30.8232 92.1473 30.6847C92.0446 30.5609 92.0006 30.2184 92.2279 29.6573C92.5507 28.8776 93.0128 28.1927 93.6216 27.4057C94.6998 25.9921 95.7853 24.5858 96.8635 23.1795L99.7021 19.456L99.9955 18.9313L99.3867 18.7637C99.3207 18.7419 99.24 18.72 99.1447 18.7127C97.4357 18.5889 95.6313 18.6472 93.7903 18.8803C93.0934 18.9678 92.9321 19.3685 92.7707 19.9223L92.6607 20.3012L93.3208 20.5417C93.6069 20.651 93.7682 20.7749 93.8196 20.9133C93.8783 21.0955 93.7682 21.4161 93.4969 21.8314C93.4602 21.8897 93.4235 21.948 93.3722 22.0063C93.2475 22.1375 93.1228 22.3488 92.9027 22.7058C91.9786 24.2142 89.8074 27.7482 84.6657 30.5973C83.7562 31.1074 81.9592 31.377 81.0204 29.9561C80.925 29.8031 80.925 29.5189 80.9323 29.242V29.0307C80.9323 28.6736 80.9543 28.3166 80.9983 27.945C83.3895 28.3239 85.7586 27.8357 88.0398 26.4949C89.0226 25.9193 89.7781 25.278 90.3502 24.5494C91.0544 23.6458 91.4211 22.6548 91.4358 21.5837C91.4725 20.7894 91.1791 20.0826 90.6216 19.5944C89.6901 18.7929 88.0764 18.6034 85.8173 19.0261C83.6755 19.4268 81.4384 21.0955 80.8003 21.5983C79.0033 23.0192 76.9349 26.1597 76.6415 29.1983C76.6268 29.3586 76.5754 29.4533 76.4067 29.6136L76.2821 29.7302C75.6879 30.3131 74.8591 31.1001 73.1868 30.8305C72.9667 30.794 72.688 30.7212 72.578 30.5536C72.4753 30.3933 72.5193 30.131 72.578 29.9342C72.754 29.3076 72.9814 28.7756 73.2601 28.353C75.0865 25.5185 82.3699 14.2606 84.6217 10.8941L84.9811 10.3622L84.2183 10.2165C84.123 10.1946 84.0276 10.1509 83.9103 10.1728C82.0912 10.2092 80.1842 10.4132 78.0717 10.7848C77.2649 10.9306 77.0816 11.5645 76.9935 11.8633L76.8762 12.2713L77.595 12.4681C77.771 12.5118 77.9324 12.5482 78.0791 12.6138C78.2625 12.6939 78.3725 12.7814 78.4165 12.8907C78.4752 13.0364 78.4165 13.2332 78.3505 13.3716C78.2551 13.5975 78.1231 13.8088 77.9837 14.0128C77.7123 14.4282 76.8395 15.7908 75.7246 17.525C73.8689 20.4178 71.3457 24.3453 69.8274 26.6625C68.7492 28.3093 65.0525 30.9398 63.006 31.5227C61.341 31.9891 59.9328 31.5227 57.593 30.7285C57.2702 30.6192 56.9328 30.5026 56.5734 30.386C58.1577 27.464 59.9621 23.9591 61.7151 20.5636C66.182 19.6236 67.2236 20.2284 67.4656 20.5344C67.6783 20.804 67.539 21.2121 67.3923 21.5181C67.2309 21.8387 67.2749 22.1739 67.4949 22.3998C67.715 22.6257 68.0817 22.6621 68.4118 22.5018C68.7052 22.3634 68.9692 22.1593 69.1379 22.0209C69.9741 21.3359 70.803 20.6073 71.6098 19.8567C72.4973 19.0261 72.8567 18.2755 72.688 17.627C72.5193 17.0004 71.8812 16.5559 70.7883 16.3008C69.1379 15.9147 66.0573 16.5195 64.0109 16.9129C63.8496 16.9421 63.7029 16.9712 63.5562 17.0004C65.2285 13.7724 67.8324 8.781 68.6172 7.95032C68.9986 7.89203 70.5022 8.05962 71.9618 8.21264C75.8493 8.62069 81.7171 9.24735 85.6339 8.53325C88.5825 8.00133 88.7512 5.80804 88.8099 5.08666C88.8099 5.02108 88.8173 4.97007 88.8173 4.94821C88.9053 4.64217 88.8393 4.32884 88.6339 4.11753C88.4138 3.89164 88.0838 3.81149 87.739 3.89893C85.5899 4.43814 83.5142 4.68589 81.2184 4.68589H81.101C79.9054 4.68589 77.3749 3.76048 74.6904 2.78407C71.4998 1.62549 67.8837 0.306598 65.3679 0.102571C54.593 -0.77183 45.5712 4.09567 40.7375 8.94131C38.7058 10.9743 37.6789 12.8251 37.6863 14.4355C37.6863 15.4483 38.1044 16.3664 38.9039 17.1534C40.0261 18.2537 41.8598 18.873 44.515 19.0406C48.3731 19.2884 52.5979 18.2974 57.0868 16.126C57.2849 16.0312 57.4756 15.9292 57.681 15.8199L58.3044 15.492L58.0184 14.6686L57.857 14.4136L57.4609 14.3626L57.3802 14.3845C57.2262 14.4209 57.0648 14.4573 56.9108 14.501C54.8571 15.0548 52.9353 15.339 51.197 15.339H51.1236C48.5418 15.3244 46.8621 14.7925 46.136 13.7505C45.7472 13.1967 45.6739 12.5336 45.9013 11.7758C46.6641 9.30564 50.4635 6.33268 55.1431 4.54016C55.7446 4.30698 61.1503 2.28857 65.1331 2.68934C68.3311 3.00995 72.1452 4.40171 74.8738 5.47285C66.8128 4.79519 65.1918 5.02836 64.7224 5.34898C63.5562 6.15051 62.632 8.19078 61.099 11.5645C59.6834 14.6905 57.7397 18.9751 54.7104 24.1195C53.6908 25.8537 52.6713 27.4495 51.6738 28.8631C46.18 27.1288 40.0994 25.5695 36.5494 28.1781C34.0482 30.0144 33.5788 32.2587 33.6228 33.8253C33.6961 36.3902 35.1484 38.5981 35.9406 39.1154L36.1313 39.2466C41.229 42.7661 47.5443 40.6602 54.9157 32.9873L56.0013 33.3152C58.6858 34.1313 60.0428 34.5394 61.8325 34.3937C63.9449 34.2188 66.4461 32.6886 68.1477 31.2604C68.2578 32.4408 68.9032 33.2205 70.1061 33.6431C71.0303 33.9637 71.9912 33.92 72.8934 33.818C74.7051 33.6213 76.5168 32.2878 77.1329 31.7923L77.1769 31.8725C77.683 32.7687 78.4605 33.3735 79.4947 33.665C80.4629 33.9419 81.4898 33.8472 82.3259 33.767C85.2305 33.4974 87.0276 32.2805 87.9444 31.5009C88.0251 32.4918 88.6119 33.2205 89.5947 33.4974C90.6069 33.7816 91.6925 33.6796 92.9247 33.1841C94.069 32.725 95.0445 32.0109 95.866 31.326C95.8513 32.2805 96.4528 32.5647 97.0909 32.8562L97.377 32.9946C98.0004 33.3007 98.6606 33.2861 99.2914 33.2497C99.9735 33.2132 100.67 33.0821 101.36 32.8635C101.881 32.8416 103.546 32.5064 104.924 31.8069C105.915 31.3041 106.993 30.0435 107.184 29.701C107.294 29.5043 107.44 29.3149 107.58 29.1254C108.012 28.557 108.739 27.2236 109.45 25.9338C110.074 24.7971 110.932 23.2305 111.078 23.0702C111.254 23.0192 111.254 23.0192 111.423 23.2523C111.577 23.4564 111.783 23.7333 112.171 23.879C112.487 23.9956 112.817 24.0539 113.11 24.1049C113.228 24.1267 113.382 24.1486 113.499 24.1777C113.396 24.3016 113.235 24.4692 113.088 24.6295C111.849 25.963 109.274 28.7319 110.785 31.1511C111.577 32.4263 114.181 32.1639 115.575 32.0255H115.604L115.531 32.2368L116.337 31.9745C116.873 31.7996 117.929 31.6539 118.435 31.5883C118.736 31.5446 119.147 31.5446 119.359 31.7632C119.601 32.0109 119.579 32.4773 119.521 32.827C119.491 33.0019 119.455 33.1768 119.396 33.359C119.081 34.3208 118.494 35.2098 117.592 36.0842C116.785 36.8711 115.809 37.5707 114.621 38.2192C112.751 39.2466 110.712 40.0336 108.196 40.7112C103.362 42.0082 98.2425 42.613 92.0739 42.6276C89.8808 42.6349 87.6877 42.5766 86.03 42.5329C83.2428 42.4527 80.4629 42.3434 77.683 42.2341C76.3847 42.1831 75.0865 42.1248 73.7882 42.0592C72.534 42.001 71.2797 41.9427 70.0255 41.8917C67.3336 41.7824 64.649 41.6876 61.9498 41.6002L61.011 41.571C59.544 41.52 58.0257 41.469 56.5221 41.469C56.4854 41.469 56.4487 41.469 56.4047 41.469C53.5148 41.469 50.5882 41.5127 47.713 41.5856C44.7277 41.6658 41.6837 41.9572 38.6691 42.4673C34.1582 43.2251 30.2268 44.442 26.6547 46.1762C26.1779 46.4094 25.7159 46.6498 25.2464 46.8903L23.6548 47.7064L24.6963 47.9979C25.2831 48.1655 25.8772 48.2748 26.4567 48.3768C26.8894 48.4569 27.3148 48.5371 27.7403 48.6391C28.7671 48.8869 29.728 49.2002 30.5935 49.5572C31.2023 49.8123 31.7817 50.1183 32.3905 50.4535C32.6619 50.5992 32.926 50.745 33.2047 50.8907L33.4174 51L33.6228 50.8834C35.7499 49.6447 38.1044 48.7411 41.251 47.9615C45.0798 47.0142 48.8132 46.5988 51.6371 46.3511C55.972 45.9649 60.3215 45.8993 64.5243 45.8337H65.1845C67.3923 45.79 69.5927 45.79 71.7932 45.79H72.8714C74.0376 45.79 75.2112 45.79 76.3847 45.7973C77.9471 45.7973 79.502 45.8119 81.0717 45.7973C84.1743 45.79 87.2769 45.7536 90.3796 45.7172C92.9321 45.688 95.6753 45.6224 98.4625 45.3383C102.423 44.9448 105.915 44.2307 109.142 43.1668C112.193 42.1613 114.599 40.9881 116.719 39.4725C118.406 38.2629 119.653 36.9877 120.518 35.5595C121.266 34.3208 121.655 33.1914 121.699 32.0911C121.758 30.6337 120.936 30.0362 120.232 29.7885L120.218 29.8249ZM83.4482 25.3509C82.8981 25.2926 82.3699 25.176 81.8858 24.9866C82.9421 22.7787 84.167 21.5983 85.92 21.0809C86.14 21.0226 86.3161 21.0372 86.4921 21.1392C86.9689 21.4161 87.2403 22.2322 87.299 22.4945C87.4823 23.3252 87.1889 24.0539 86.4554 24.6004C85.6046 25.2343 84.6511 25.4748 83.4482 25.3509ZM38.9112 30.4443C39.63 29.5335 40.5542 29.1837 41.6691 29.1837C43.114 29.1837 44.8817 29.7593 46.9795 30.437C47.4122 30.5754 47.8523 30.7212 48.3071 30.8596L49.8181 31.3333C43.8695 38.7511 41.3903 37.6581 40.1874 37.1335C40.0407 37.0679 39.9087 37.0096 39.7914 36.9731C39.3806 36.8274 38.7131 35.9093 38.3537 34.6778C38.1264 33.9055 37.7229 31.9381 38.9112 30.437V30.4443Z" fill="#361F0F"/>
<path d="M29.0019 31.1219C29.1632 30.9033 30.1974 29.6573 30.8502 28.8777L31.0776 28.5133L30.5715 27.9595L30.2634 28.098C28.4444 28.9141 27.0141 29.4314 26.5374 29.446H26.2733L26.1633 29.6865C25.7525 30.5536 25.1731 31.3478 24.4323 32.0474C23.4714 32.9509 22.5619 33.3881 21.5644 33.4245C20.7722 33.461 20.2147 33.0675 19.9947 32.2805C19.8993 31.9526 19.8553 31.5883 19.848 31.2385C19.848 30.8815 19.87 30.5244 19.914 30.1528C22.2978 30.539 24.6743 30.0435 26.9554 28.7028C27.9383 28.1271 28.6938 27.4859 29.2659 26.7572C29.97 25.8537 30.3368 24.8627 30.3515 23.7916C30.3881 22.9973 30.1021 22.2905 29.5373 21.8023C28.6058 20.9935 26.9921 20.804 24.7257 21.2266C22.5839 21.6274 20.3468 23.2961 19.7086 23.7988C17.9116 25.2197 15.8432 28.3603 15.5498 31.3988C15.5351 31.5591 15.4838 31.6539 15.3151 31.8142L15.1904 31.9308C14.5889 32.5064 13.7748 33.3007 12.1024 33.0311C11.8824 32.9946 11.6037 32.9218 11.4937 32.7542C11.391 32.5939 11.435 32.3315 11.4937 32.1348C11.6697 31.5081 11.8971 30.9762 12.1758 30.5536C13.6207 28.3166 22.4812 14.9965 24.9164 11.3605L25.2758 10.8286L24.5129 10.6828C24.4176 10.661 24.3222 10.6245 24.2049 10.6391C22.3858 10.6755 20.4788 10.8796 18.3664 11.2512C17.5595 11.3969 17.3762 12.0309 17.2882 12.3296L17.1708 12.745L17.8823 12.9344C18.0583 12.9781 18.2197 13.0146 18.3737 13.0801C18.5571 13.1603 18.6671 13.2477 18.7111 13.357C18.7698 13.5028 18.7111 13.6995 18.6451 13.838C18.5497 14.0638 18.4177 14.2752 18.2784 14.4792C17.6696 15.4046 17.0608 16.3227 16.452 17.2408L14.0168 20.906C12.2565 23.5511 10.4961 26.2034 8.75043 28.8631C7.6062 30.6119 6.19058 31.9308 4.42289 32.8926C3.61606 33.3298 2.8019 33.6067 1.99507 33.7087L1.79703 33.7306L1.51097 34.1678C1.12223 34.758 0.718812 35.3701 0.39608 36.004L0 36.7764L0.858173 36.6088C3.03661 36.1935 5.07569 35.1661 7.08543 33.4755C7.19545 34.656 7.84091 35.4357 9.04382 35.8583C9.97535 36.1862 10.9362 36.1352 11.8311 36.0332C13.6281 35.8364 15.4398 34.5103 16.0706 34.0148C16.0852 34.0439 16.0999 34.0731 16.1146 34.0949C16.6207 34.9912 17.3982 35.596 18.4324 35.8874C19.2612 36.1206 20.1927 36.157 21.2856 35.9894C24.3883 35.5085 26.9921 33.869 29.0239 31.1074L29.0019 31.1219ZM22.3638 27.5515C21.8137 27.4932 21.293 27.3766 20.8089 27.1944C21.8724 25.1833 24.1755 23.1722 25.2904 23.041C25.4958 23.0192 25.6572 23.0483 25.7672 23.143C26.0753 23.3908 26.1413 24.0393 26.1706 24.3891C26.1853 24.5202 26.1926 24.6295 26.2073 24.6951C26.3907 25.5258 26.0973 26.2544 25.3638 26.8009C24.5129 27.4349 23.5594 27.6754 22.3565 27.5515H22.3638Z" fill="#361F0F"/>
<path d="M131.961 9.07247C131.931 8.62069 131.697 8.22721 131.315 8.00861C130.838 7.73172 130.2 7.73901 129.613 8.03047L127.391 9.11619L128.418 7.11235C128.682 6.595 128.682 6.0485 128.418 5.61858C128.169 5.21053 127.714 4.97736 127.178 4.97736H126.129C125.103 4.97736 124.098 5.8299 123.995 6.8136L123.724 9.28378L122.183 8.15435C121.846 7.9066 121.391 7.81916 120.914 7.9066C120.306 8.02319 119.741 8.40938 119.411 8.94131L118.861 9.823C118.545 10.3258 118.487 10.8796 118.699 11.3386C118.89 11.7467 119.271 12.0163 119.755 12.0892L121.758 12.3952L119.851 13.6849C119.293 14.0638 118.941 14.6395 118.912 15.2151C118.89 15.6523 119.051 16.0385 119.367 16.3081L119.968 16.8182C120.284 17.0805 120.709 17.1971 121.171 17.1461C121.773 17.0732 122.359 16.7235 122.704 16.2426L124.208 14.4719L124.662 16.0385C124.729 16.4684 125 16.8255 125.396 17.0149C125.609 17.117 125.836 17.1607 126.078 17.1607C126.423 17.1607 126.79 17.0587 127.127 16.8692L127.875 16.4393C128.484 16.0895 128.902 15.492 128.961 14.8872C129.005 14.4282 128.858 14.0201 128.535 13.7359L127.046 12.4171L130.076 12.06C131.154 11.9288 132.056 10.967 131.997 9.9833L131.946 9.08704L131.961 9.07247Z" fill="#361F0F"/>
</svg>